<svg width="161" height="46" viewBox="0 0 161 46" fill="none" xmlns="http://www.w3.org/2000/svg">
<mask id="mask0_706_46557" style="mask-type:luminance" maskUnits="userSpaceOnUse" x="0" y="0" width="161" height="46">
<path d="M160.015 0H0V45.0561H160.015V0Z" fill="white"/>
</mask>
<g mask="url(#mask0_706_46557)">
<path d="M37.6719 15.3936H41.8478V37.7144H37.6719V15.3936Z" fill="white"/>
<path d="M61.0676 15.3936V37.7144L49.9024 26.554V37.7144H45.7266V15.3936L56.8917 26.554V15.3936H61.0676Z" fill="white"/>
<path d="M84.4348 37.6848H80.2589V25.1331L74.6912 30.728L69.0938 25.1331V37.6848H64.918V15.3936L74.6912 25.1331L84.4348 15.3936V37.6848Z" fill="white"/>
<path d="M105.788 34.4288C103.625 36.6194 100.99 37.7147 97.9096 37.7147C94.83 37.7147 92.194 36.6194 90.0022 34.4288C87.8106 32.2678 86.7148 29.6331 86.7148 26.5248C86.7148 23.446 87.8106 20.8113 90.0022 18.6503C92.1643 16.4597 94.8003 15.3643 97.9096 15.3643C100.99 15.3643 103.625 16.4597 105.788 18.6503C107.979 20.8113 109.075 23.446 109.075 26.5248C109.075 29.6331 107.979 32.2381 105.788 34.4288ZM92.9639 21.6106C91.6017 22.9723 90.9202 24.6005 90.9202 26.5248C90.9202 28.4489 91.6017 30.1067 92.9639 31.4685C94.3261 32.8302 95.9849 33.5111 97.9096 33.5111C99.8343 33.5111 101.463 32.8302 102.826 31.4685C104.189 30.1067 104.869 28.4489 104.869 26.5248C104.869 24.6005 104.189 22.9723 102.826 21.6106C101.463 20.2488 99.8343 19.568 97.9096 19.568C95.9849 19.568 94.3261 20.2488 92.9639 21.6106Z" fill="white"/>
<path d="M115.947 15.3936V33.5107H127.112V37.6848H111.771V15.3936H115.947Z" fill="white"/>
<path d="M131.733 15.3936V30.728C131.733 31.2017 131.881 31.6753 132.176 32.1194C132.443 32.5338 132.769 32.8595 133.213 33.0963C133.746 33.3923 134.427 33.5404 135.227 33.5404C136.027 33.5404 136.708 33.3923 137.241 33.0963C137.686 32.8595 138.011 32.5338 138.278 32.1194C138.574 31.6458 138.721 31.2017 138.721 30.728V15.3936H142.898V30.728C142.898 31.8826 142.572 33.0667 141.95 34.2213C141.387 35.2277 140.617 36.027 139.67 36.619C138.485 37.3591 137.004 37.7144 135.227 37.7144C132.029 37.7144 129.778 36.5598 128.505 34.2213C127.853 33.0667 127.527 31.8826 127.527 30.728V15.3936H131.733Z" fill="white"/>
<path d="M160.015 15.3936L154.418 26.554L160.015 37.7144H155.513L152.167 31.0537L148.82 37.7144H144.318L149.916 26.554L144.348 15.3936H148.85L152.197 22.0543L155.513 15.3936H160.015Z" fill="white"/>
<path d="M9.33008 19.5085V3.81881L19.1329 0V21.8768L13.2986 15.7786L9.33008 19.5085Z" fill="white"/>
<path d="M27.6325 14.4463C27.6325 14.1502 27.6325 13.647 27.6325 13.2917C27.6325 13.0846 27.8102 12.907 28.0175 12.907C28.3433 12.907 28.8171 12.8773 29.1134 12.8773C29.528 12.8773 29.6168 12.6997 29.6168 12.3148C29.5872 10.6867 29.5872 9.02889 29.6168 7.40071C29.6168 6.98627 29.4687 6.89746 29.0837 6.89746C27.4549 6.92706 25.7964 6.92706 24.1675 6.89746C23.6048 6.89746 23.4863 7.10468 23.4863 7.60793C23.5159 10.1538 23.4863 12.6997 23.4863 15.216C23.4863 17.4362 23.4863 24.1561 23.4863 26.3764L27.5733 30.5505C27.5733 28.0934 27.6325 16.933 27.6325 14.4463Z" fill="white"/>
<path d="M35.0949 15.0979C35.0949 14.6539 34.9469 14.5059 34.5026 14.5059C32.7257 14.5355 30.9487 14.5355 29.2014 14.5059C28.7276 14.5059 28.6387 14.6539 28.6387 15.0979C28.6387 17.3478 28.6387 29.3371 28.6387 31.5869L35.0653 38.1292C35.0357 37.3596 35.0653 16.5781 35.0949 15.0979Z" fill="white"/>
<path d="M22.2723 7.63764C22.2723 6.24628 22.2723 6.24628 23.6347 6.24628C23.7531 6.24628 23.8716 6.24628 23.9901 6.24628C24.4047 6.21668 24.4639 6.12787 24.4639 5.77263C24.4343 4.70691 24.4639 3.6708 24.4639 2.60508C24.4639 2.30905 24.4047 2.13143 24.1382 2.01302C22.8647 1.36175 21.5911 0.710477 20.1992 0C20.1992 0.384842 20.1992 0.680875 20.1992 0.947305C20.1992 7.93366 20.1992 16.1338 20.1992 23.1201L22.3316 25.3107C22.302 20.5446 22.2723 12.3741 22.2723 7.63764Z" fill="white"/>
<path d="M13.4456 21.1071L29.6456 38.425H34.6802L13.1495 17.0811C13.1495 17.0811 4.56085 25.5772 0 30.0473H4.62009L13.4456 21.1071Z" fill="white"/>
<path d="M30.3867 39.6094H108.632V45.0564H35.1845L30.3867 39.6094Z" fill="white"/>
</g>
</svg>
